<svg xmlns="http://www.w3.org/2000/svg" xmlns:xlink="http://www.w3.org/1999/xlink" width="500" zoomAndPan="magnify" viewBox="0 0 375 374.999991" height="500" preserveAspectRatio="xMidYMid meet" version="1.0"><defs><clipPath id="c2179ec206"><path d="M 112.5 112.5 L 262.5 112.5 L 262.5 262.5 L 112.5 262.5 Z M 112.5 112.5 " clip-rule="nonzero"/></clipPath></defs><rect x="-37.5" width="450" fill="#ffffff" y="-37.499999" height="449.999989" fill-opacity="1"/><rect x="-37.5" width="450" fill="#ee1d26" y="-37.499999" height="449.999989" fill-opacity="1"/><g clip-path="url(#c2179ec206)"><path fill="#fbfcfb" d="M 187.5 112.5 C 146.078125 112.5 112.5 146.078125 112.5 187.5 C 112.5 228.921875 146.078125 262.5 187.5 262.5 C 228.921875 262.5 262.5 228.921875 262.5 187.5 C 262.5 146.078125 228.921875 112.5 187.5 112.5 Z M 141.789062 151.625 L 233.113281 151.625 C 233.34375 151.625 233.5 151.730469 233.585938 151.941406 C 233.671875 152.15625 233.632812 152.339844 233.464844 152.496094 L 202.765625 181.632812 L 202.714844 181.683594 L 193.546875 190.382812 C 193.109375 190.800781 192.636719 191.171875 192.125 191.5 C 191.617188 191.824219 191.082031 192.101562 190.519531 192.324219 C 189.957031 192.546875 189.378906 192.714844 188.78125 192.828125 C 188.1875 192.941406 187.589844 192.996094 186.984375 192.992188 C 186.378906 192.988281 185.78125 192.925781 185.1875 192.808594 C 184.59375 192.691406 184.015625 192.515625 183.457031 192.285156 C 182.894531 192.058594 182.363281 191.777344 181.859375 191.445312 C 181.351562 191.113281 180.882812 190.734375 180.449219 190.3125 L 171.960938 182.085938 C 171.945312 182.070312 171.933594 182.058594 171.917969 182.042969 L 141.433594 152.492188 C 141.273438 152.335938 141.234375 152.148438 141.320312 151.941406 C 141.40625 151.730469 141.5625 151.625 141.789062 151.625 Z M 137.484375 218.335938 L 137.484375 155.65625 C 137.484375 155.433594 137.585938 155.28125 137.792969 155.191406 C 137.996094 155.105469 138.179688 155.140625 138.339844 155.292969 L 167.308594 183.382812 C 167.402344 183.472656 167.453125 183.585938 167.460938 183.71875 C 167.464844 183.847656 167.425781 183.964844 167.34375 184.066406 L 138.375 218.660156 C 138.222656 218.839844 138.035156 218.890625 137.816406 218.8125 C 137.59375 218.730469 137.484375 218.570312 137.484375 218.335938 Z M 234.054688 223.375 L 140.945312 223.375 C 140.730469 223.375 140.578125 223.277344 140.488281 223.082031 C 140.394531 222.886719 140.417969 222.710938 140.558594 222.546875 L 170.296875 187.035156 C 170.390625 186.921875 170.507812 186.859375 170.65625 186.851562 C 170.800781 186.847656 170.929688 186.894531 171.035156 186.996094 L 177.542969 193.304688 C 178.800781 194.53125 180.246094 195.476562 181.875 196.144531 C 183.503906 196.808594 185.195312 197.144531 186.957031 197.148438 L 187.03125 197.148438 C 188.777344 197.152344 190.460938 196.828125 192.082031 196.183594 C 193.703125 195.535156 195.148438 194.609375 196.410156 193.40625 L 203.613281 186.566406 C 203.71875 186.46875 203.84375 186.421875 203.988281 186.429688 C 204.136719 186.4375 204.253906 186.5 204.347656 186.609375 L 234.441406 222.546875 C 234.578125 222.710938 234.601562 222.886719 234.511719 223.082031 C 234.421875 223.277344 234.269531 223.371094 234.054688 223.375 Z M 237.515625 218.335938 C 237.515625 218.570312 237.40625 218.730469 237.183594 218.808594 C 236.960938 218.890625 236.777344 218.839844 236.625 218.660156 L 207.339844 183.6875 C 207.253906 183.585938 207.214844 183.464844 207.222656 183.332031 C 207.230469 183.199219 207.28125 183.085938 207.378906 182.996094 L 236.667969 155.203125 C 236.828125 155.050781 237.007812 155.019531 237.210938 155.105469 C 237.414062 155.191406 237.515625 155.347656 237.515625 155.566406 Z M 237.515625 218.335938 " fill-opacity="1" fill-rule="nonzero"/></g></svg>