<svg xmlns="http://www.w3.org/2000/svg" xmlns:xlink="http://www.w3.org/1999/xlink" width="500" zoomAndPan="magnify" viewBox="0 0 375 374.999991" height="500" preserveAspectRatio="xMidYMid meet" version="1.0"><defs><clipPath id="2c212f7def"><path d="M 239 80.425781 L 263 80.425781 L 263 104 L 239 104 Z M 239 80.425781 " clip-rule="nonzero"/></clipPath><clipPath id="df156a097c"><path d="M 97.691406 230 L 121 230 L 121 253 L 97.691406 253 Z M 97.691406 230 " clip-rule="nonzero"/></clipPath><clipPath id="972790956c"><path d="M 254 218 L 276.941406 218 L 276.941406 242 L 254 242 Z M 254 218 " clip-rule="nonzero"/></clipPath><clipPath id="8bd40d21e4"><path d="M 165 271 L 189 271 L 189 294.925781 L 165 294.925781 Z M 165 271 " clip-rule="nonzero"/></clipPath></defs><rect x="-37.5" width="450" fill="#ffffff" y="-37.499999" height="449.999989" fill-opacity="1"/><rect x="-37.5" width="450" fill="#ee1d26" y="-37.499999" height="449.999989" fill-opacity="1"/><path fill="#ffffff" d="M 177.125 184.078125 C 167.109375 184.078125 158.960938 175.929688 158.960938 165.917969 C 158.960938 155.902344 167.109375 147.753906 177.125 147.753906 C 187.140625 147.753906 195.289062 155.902344 195.289062 165.917969 C 195.289062 175.929688 187.140625 184.078125 177.125 184.078125 Z M 177.125 154.445312 C 170.800781 154.445312 165.652344 159.589844 165.652344 165.917969 C 165.652344 172.242188 170.800781 177.386719 177.125 177.386719 C 183.449219 177.386719 188.597656 172.242188 188.597656 165.917969 C 188.597656 159.589844 183.449219 154.445312 177.125 154.445312 Z M 177.125 154.445312 " fill-opacity="1" fill-rule="nonzero"/><path fill="#ffffff" d="M 206.140625 230.074219 L 148.109375 230.074219 C 146.261719 230.074219 144.761719 228.574219 144.761719 226.726562 L 144.761719 199.46875 C 144.761719 187.292969 154.667969 177.386719 166.847656 177.386719 L 187.402344 177.386719 C 199.582031 177.386719 209.488281 187.292969 209.488281 199.46875 L 209.488281 226.726562 C 209.488281 228.574219 207.988281 230.074219 206.140625 230.074219 Z M 151.453125 223.382812 L 202.796875 223.382812 L 202.796875 199.46875 C 202.796875 190.984375 195.890625 184.078125 187.402344 184.078125 L 166.847656 184.078125 C 158.359375 184.078125 151.453125 190.984375 151.453125 199.46875 Z M 151.453125 223.382812 " fill-opacity="1" fill-rule="nonzero"/><path fill="#ffffff" d="M 161.691406 230.074219 C 159.84375 230.074219 158.34375 228.574219 158.34375 226.726562 L 158.34375 201.648438 C 158.34375 199.800781 159.84375 198.304688 161.691406 198.304688 C 163.539062 198.304688 165.035156 199.800781 165.035156 201.648438 L 165.035156 226.726562 C 165.035156 228.574219 163.539062 230.074219 161.691406 230.074219 Z M 161.691406 230.074219 " fill-opacity="1" fill-rule="nonzero"/><path fill="#ffffff" d="M 192.558594 230.074219 C 190.710938 230.074219 189.214844 228.574219 189.214844 226.726562 L 189.214844 201.648438 C 189.214844 199.800781 190.710938 198.304688 192.558594 198.304688 C 194.40625 198.304688 195.90625 199.800781 195.90625 201.648438 L 195.90625 226.726562 C 195.90625 228.574219 194.40625 230.074219 192.558594 230.074219 Z M 192.558594 230.074219 " fill-opacity="1" fill-rule="nonzero"/><path fill="#ffffff" d="M 177.125 257.40625 C 140.894531 257.40625 111.417969 227.929688 111.417969 191.699219 C 111.417969 155.46875 140.894531 125.996094 177.125 125.996094 C 213.355469 125.996094 242.832031 155.46875 242.832031 191.699219 C 242.832031 227.929688 213.355469 257.40625 177.125 257.40625 Z M 177.125 132.6875 C 144.582031 132.6875 118.109375 159.160156 118.109375 191.699219 C 118.109375 224.242188 144.585938 250.714844 177.125 250.714844 C 209.664062 250.714844 236.140625 224.242188 236.140625 191.699219 C 236.140625 159.160156 209.664062 132.6875 177.125 132.6875 Z M 177.125 132.6875 " fill-opacity="1" fill-rule="nonzero"/><path fill="#ffffff" d="M 133.25 150.730469 C 132.394531 150.730469 131.539062 150.40625 130.886719 149.75 L 113.164062 132.03125 C 111.859375 130.722656 111.859375 128.605469 113.164062 127.296875 C 114.472656 125.992188 116.589844 125.992188 117.894531 127.296875 L 135.617188 145.019531 C 136.925781 146.328125 136.925781 148.445312 135.617188 149.75 C 134.964844 150.402344 134.109375 150.730469 133.25 150.730469 Z M 133.25 150.730469 " fill-opacity="1" fill-rule="nonzero"/><path fill="#ffffff" d="M 207.070312 140.332031 C 206.214844 140.332031 205.359375 140.007812 204.703125 139.351562 C 203.398438 138.046875 203.398438 135.929688 204.703125 134.621094 L 243.691406 95.636719 C 244.996094 94.328125 247.117188 94.328125 248.421875 95.636719 C 249.730469 96.941406 249.730469 99.0625 248.421875 100.367188 L 209.4375 139.351562 C 208.78125 140.007812 207.925781 140.332031 207.070312 140.332031 Z M 207.070312 140.332031 " fill-opacity="1" fill-rule="nonzero"/><path fill="#ffffff" d="M 260.390625 227.449219 C 259.535156 227.449219 258.679688 227.125 258.023438 226.472656 L 236.21875 204.667969 C 234.914062 203.359375 234.914062 201.242188 236.21875 199.933594 C 237.527344 198.628906 239.644531 198.628906 240.953125 199.933594 L 262.757812 221.738281 C 264.0625 223.046875 264.0625 225.164062 262.757812 226.472656 C 262.101562 227.125 261.246094 227.449219 260.390625 227.449219 Z M 260.390625 227.449219 " fill-opacity="1" fill-rule="nonzero"/><path fill="#ffffff" d="M 177.125 278.632812 C 175.277344 278.632812 173.777344 277.136719 173.777344 275.289062 L 173.777344 254.058594 C 173.777344 252.210938 175.277344 250.714844 177.125 250.714844 C 178.972656 250.714844 180.46875 252.210938 180.46875 254.058594 L 180.46875 275.289062 C 180.46875 277.136719 178.972656 278.632812 177.125 278.632812 Z M 177.125 278.632812 " fill-opacity="1" fill-rule="nonzero"/><path fill="#ffffff" d="M 114.644531 239.390625 C 113.789062 239.390625 112.933594 239.066406 112.28125 238.414062 C 110.972656 237.105469 110.972656 234.988281 112.28125 233.679688 L 122.535156 223.425781 C 123.84375 222.117188 125.960938 222.117188 127.265625 223.425781 C 128.574219 224.730469 128.574219 226.847656 127.265625 228.15625 L 117.011719 238.414062 C 116.359375 239.066406 115.503906 239.390625 114.644531 239.390625 Z M 114.644531 239.390625 " fill-opacity="1" fill-rule="nonzero"/><path fill="#ffffff" d="M 109.898438 135.339844 C 103.664062 135.339844 98.59375 130.269531 98.59375 124.035156 C 98.59375 117.800781 103.664062 112.726562 109.898438 112.726562 C 116.132812 112.726562 121.207031 117.800781 121.207031 124.035156 C 121.207031 130.269531 116.132812 135.339844 109.898438 135.339844 Z M 109.898438 119.417969 C 107.355469 119.417969 105.285156 121.488281 105.285156 124.035156 C 105.285156 126.578125 107.355469 128.648438 109.898438 128.648438 C 112.445312 128.648438 114.515625 126.578125 114.515625 124.035156 C 114.515625 121.488281 112.445312 119.417969 109.898438 119.417969 Z M 109.898438 119.417969 " fill-opacity="1" fill-rule="nonzero"/><g clip-path="url(#2c212f7def)"><path fill="#ffffff" d="M 250.984375 103.054688 C 244.75 103.054688 239.675781 97.980469 239.675781 91.746094 C 239.675781 85.511719 244.75 80.441406 250.984375 80.441406 C 257.21875 80.441406 262.289062 85.511719 262.289062 91.746094 C 262.289062 97.980469 257.21875 103.054688 250.984375 103.054688 Z M 250.984375 87.132812 C 248.4375 87.132812 246.367188 89.203125 246.367188 91.746094 C 246.367188 94.292969 248.4375 96.363281 250.984375 96.363281 C 253.527344 96.363281 255.597656 94.292969 255.597656 91.746094 C 255.597656 89.203125 253.527344 87.132812 250.984375 87.132812 Z M 250.984375 87.132812 " fill-opacity="1" fill-rule="nonzero"/></g><g clip-path="url(#df156a097c)"><path fill="#ffffff" d="M 109.015625 252.984375 C 102.78125 252.984375 97.710938 247.910156 97.710938 241.675781 C 97.710938 235.441406 102.78125 230.371094 109.015625 230.371094 C 115.25 230.371094 120.320312 235.441406 120.320312 241.675781 C 120.320312 247.910156 115.25 252.984375 109.015625 252.984375 Z M 109.015625 237.0625 C 106.472656 237.0625 104.398438 239.132812 104.398438 241.675781 C 104.398438 244.222656 106.472656 246.292969 109.015625 246.292969 C 111.558594 246.292969 113.632812 244.222656 113.632812 241.675781 C 113.632812 239.132812 111.5625 237.0625 109.015625 237.0625 Z M 109.015625 237.0625 " fill-opacity="1" fill-rule="nonzero"/></g><g clip-path="url(#972790956c)"><path fill="#ffffff" d="M 266.019531 241.042969 C 259.785156 241.042969 254.714844 235.96875 254.714844 229.734375 C 254.714844 223.5 259.785156 218.429688 266.019531 218.429688 C 272.253906 218.429688 277.328125 223.5 277.328125 229.734375 C 277.328125 235.96875 272.253906 241.042969 266.019531 241.042969 Z M 266.019531 225.121094 C 263.476562 225.121094 261.40625 227.191406 261.40625 229.734375 C 261.40625 232.28125 263.476562 234.351562 266.019531 234.351562 C 268.566406 234.351562 270.636719 232.28125 270.636719 229.734375 C 270.636719 227.191406 268.566406 225.121094 266.019531 225.121094 Z M 266.019531 225.121094 " fill-opacity="1" fill-rule="nonzero"/></g><g clip-path="url(#8bd40d21e4)"><path fill="#ffffff" d="M 177.125 294.554688 C 170.890625 294.554688 165.820312 289.484375 165.820312 283.25 C 165.820312 277.015625 170.890625 271.941406 177.125 271.941406 C 183.359375 271.941406 188.429688 277.015625 188.429688 283.25 C 188.429688 289.484375 183.359375 294.554688 177.125 294.554688 Z M 177.125 278.632812 C 174.578125 278.632812 172.507812 280.703125 172.507812 283.25 C 172.507812 285.792969 174.578125 287.863281 177.125 287.863281 C 179.667969 287.863281 181.742188 285.792969 181.742188 283.25 C 181.742188 280.703125 179.667969 278.632812 177.125 278.632812 Z M 177.125 278.632812 " fill-opacity="1" fill-rule="nonzero"/></g></svg>