<svg xmlns="http://www.w3.org/2000/svg" xmlns:xlink="http://www.w3.org/1999/xlink" width="500" zoomAndPan="magnify" viewBox="0 0 375 374.999991" height="500" preserveAspectRatio="xMidYMid meet" version="1.0"><defs><clipPath id="ccfe871467"><path d="M 79.601562 107.113281 L 295.601562 107.113281 L 295.601562 267.613281 L 79.601562 267.613281 Z M 79.601562 107.113281 " clip-rule="nonzero"/></clipPath></defs><rect x="-37.5" width="450" fill="#ffffff" y="-37.499999" height="449.999989" fill-opacity="1"/><rect x="-37.5" width="450" fill="#ee1d26" y="-37.499999" height="449.999989" fill-opacity="1"/><g clip-path="url(#ccfe871467)"><path fill="#ffffff" d="M 292.53125 233.496094 C 291.195312 231.03125 289.464844 228.886719 287.335938 227.0625 C 285.207031 225.238281 282.824219 223.855469 280.183594 222.914062 C 278.160156 223.515625 276.113281 224 274.035156 224.367188 C 269.429688 225.253906 265.078125 226.09375 260.949219 230.171875 C 256.8125 234.257812 255.386719 238.03125 253.875 242.03125 C 252.945312 244.492188 251.984375 247.039062 250.363281 249.578125 C 250.597656 250.839844 250.964844 252.0625 251.472656 253.242188 C 251.875 254.214844 252.34375 255.15625 252.878906 256.0625 C 253.414062 256.96875 254.007812 257.835938 254.664062 258.660156 C 255.320312 259.484375 256.027344 260.257812 256.792969 260.984375 C 257.554688 261.710938 258.363281 262.378906 259.21875 262.992188 C 260.078125 263.605469 260.972656 264.160156 261.902344 264.648438 C 262.835938 265.136719 263.796875 265.558594 264.789062 265.914062 C 265.78125 266.269531 266.792969 266.554688 267.824219 266.769531 C 268.855469 266.984375 269.894531 267.125 270.945312 267.195312 C 271.996094 267.265625 273.046875 267.261719 274.097656 267.1875 C 275.148438 267.109375 276.1875 266.960938 277.21875 266.742188 C 278.25 266.519531 279.257812 266.230469 280.246094 265.867188 C 281.238281 265.507812 282.195312 265.078125 283.125 264.585938 C 284.054688 264.089844 284.949219 263.535156 285.800781 262.914062 C 286.652344 262.296875 287.457031 261.621094 288.214844 260.890625 C 288.976562 260.160156 289.679688 259.382812 290.332031 258.554688 C 290.980469 257.726562 291.570312 256.855469 292.101562 255.945312 C 292.363281 255.5 292.609375 255.050781 292.84375 254.585938 C 294.160156 251.980469 294.9375 249.21875 295.183594 246.308594 C 295.238281 245.667969 295.285156 245.023438 295.285156 244.367188 C 295.289062 240.507812 294.371094 236.886719 292.53125 233.496094 Z M 284.59375 247.566406 C 284.453125 248.066406 284.28125 248.558594 284.082031 249.035156 C 283.878906 249.515625 283.648438 249.980469 283.386719 250.429688 C 283.125 250.878906 282.835938 251.3125 282.523438 251.726562 C 282.207031 252.140625 281.867188 252.53125 281.503906 252.902344 C 281.140625 253.273438 280.753906 253.621094 280.347656 253.945312 C 279.9375 254.265625 279.511719 254.5625 279.066406 254.832031 C 278.621094 255.101562 278.164062 255.339844 277.6875 255.550781 C 277.210938 255.765625 276.726562 255.945312 276.226562 256.09375 C 275.730469 256.246094 275.226562 256.363281 274.710938 256.449219 C 274.199219 256.535156 273.683594 256.589844 273.164062 256.613281 C 272.644531 256.636719 272.125 256.625 271.605469 256.582031 C 271.089844 256.539062 270.574219 256.460938 270.066406 256.355469 C 269.558594 256.246094 269.058594 256.109375 268.566406 255.9375 C 268.074219 255.765625 267.597656 255.566406 267.132812 255.335938 C 266.664062 255.105469 266.214844 254.84375 265.78125 254.558594 C 265.347656 254.269531 264.933594 253.957031 264.539062 253.617188 C 264.144531 253.28125 263.773438 252.917969 263.425781 252.53125 C 263.078125 252.144531 262.753906 251.738281 262.457031 251.3125 C 262.160156 250.886719 261.890625 250.441406 261.648438 249.984375 C 261.40625 249.523438 261.195312 249.050781 261.011719 248.5625 C 260.828125 248.074219 260.679688 247.578125 260.558594 247.074219 C 260.4375 246.566406 260.351562 246.054688 260.292969 245.539062 C 260.238281 245.019531 260.214844 244.503906 260.222656 243.984375 C 260.234375 243.460938 260.277344 242.945312 260.351562 242.429688 C 260.425781 241.917969 260.53125 241.410156 260.667969 240.90625 C 260.808594 240.40625 260.976562 239.914062 261.175781 239.433594 C 261.375 238.953125 261.605469 238.488281 261.863281 238.039062 C 262.121094 237.585938 262.40625 237.152344 262.71875 236.738281 C 263.03125 236.324219 263.371094 235.929688 263.730469 235.554688 C 264.09375 235.183594 264.476562 234.832031 264.882812 234.507812 C 265.289062 234.183594 265.714844 233.886719 266.160156 233.613281 C 266.601562 233.34375 267.0625 233.101562 267.535156 232.886719 C 268.007812 232.671875 268.496094 232.488281 268.992188 232.335938 C 269.488281 232.183594 269.992188 232.0625 270.507812 231.972656 C 271.019531 231.882812 271.535156 231.828125 272.054688 231.800781 C 272.574219 231.777344 273.089844 231.785156 273.609375 231.828125 C 274.128906 231.867188 274.640625 231.941406 275.152344 232.042969 C 275.660156 232.148438 276.160156 232.285156 276.652344 232.453125 C 277.144531 232.621094 277.625 232.820312 278.09375 233.050781 C 278.558594 233.277344 279.011719 233.535156 279.445312 233.820312 C 279.878906 234.105469 280.296875 234.414062 280.691406 234.753906 C 281.085938 235.089844 281.460938 235.449219 281.8125 235.835938 C 282.164062 236.21875 282.488281 236.621094 282.789062 237.046875 C 283.085938 237.472656 283.359375 237.914062 283.601562 238.375 C 283.847656 238.832031 284.0625 239.304688 284.246094 239.792969 C 284.433594 240.277344 284.585938 240.773438 284.707031 241.277344 C 284.832031 241.785156 284.921875 242.292969 284.980469 242.8125 C 285.039062 243.328125 285.0625 243.847656 285.058594 244.367188 C 285.042969 245.453125 284.886719 246.519531 284.59375 247.566406 Z M 262.410156 226.699219 C 263.683594 225.8125 265.042969 225.089844 266.492188 224.527344 C 266.949219 224.351562 267.410156 224.1875 267.867188 224.039062 C 269.707031 223.484375 271.574219 223.042969 273.46875 222.714844 C 273.941406 222.625 274.414062 222.53125 274.890625 222.4375 C 275.554688 222.304688 276.226562 222.164062 276.898438 222.007812 C 277.183594 221.945312 277.46875 221.882812 277.753906 221.8125 C 279.246094 221.449219 280.699219 220.96875 282.113281 220.371094 C 283.035156 219.980469 283.929688 219.523438 284.789062 219.007812 C 285.15625 218.785156 285.484375 218.566406 285.78125 218.359375 C 286.558594 217.847656 287.25 217.238281 287.851562 216.527344 C 285.957031 215.121094 283.910156 213.984375 281.710938 213.121094 C 281.527344 213.046875 281.347656 212.96875 281.164062 212.898438 C 280.183594 212.523438 279.183594 212.199219 278.167969 211.929688 C 277.972656 211.878906 277.777344 211.835938 277.578125 211.785156 C 276.511719 211.519531 275.429688 211.3125 274.335938 211.167969 C 273.210938 211.03125 272.085938 210.960938 270.953125 210.953125 C 270.738281 210.949219 270.523438 210.9375 270.304688 210.941406 C 269.414062 210.949219 268.519531 210.984375 267.621094 211.074219 C 263.984375 211.4375 260.535156 212.445312 257.269531 214.085938 L 259.144531 211.371094 L 260.0625 210.035156 C 260.503906 209.398438 260.859375 208.71875 261.128906 207.996094 C 261.402344 207.277344 261.585938 206.53125 261.675781 205.765625 C 261.769531 205 261.769531 204.234375 261.675781 203.46875 C 261.578125 202.703125 261.394531 201.957031 261.121094 201.238281 L 248.894531 169.175781 L 256.429688 170.375 C 256.621094 170.40625 256.8125 170.414062 257.007812 170.402344 C 257.199219 170.394531 257.390625 170.359375 257.574219 170.308594 C 257.761719 170.253906 257.941406 170.183594 258.109375 170.09375 C 258.28125 170 258.441406 169.894531 258.585938 169.765625 C 258.734375 169.640625 258.867188 169.5 258.984375 169.347656 C 259.101562 169.191406 259.199219 169.027344 259.28125 168.851562 C 259.359375 168.675781 259.421875 168.496094 259.464844 168.304688 C 259.503906 168.117188 259.527344 167.925781 259.527344 167.730469 L 259.527344 153.65625 C 259.527344 153.464844 259.503906 153.273438 259.464844 153.082031 C 259.421875 152.894531 259.359375 152.710938 259.28125 152.535156 C 259.199219 152.359375 259.101562 152.195312 258.984375 152.042969 C 258.867188 151.886719 258.734375 151.746094 258.585938 151.621094 C 258.441406 151.496094 258.28125 151.386719 258.109375 151.296875 C 257.941406 151.207031 257.761719 151.132812 257.574219 151.082031 C 257.390625 151.027344 257.199219 150.996094 257.007812 150.984375 C 256.8125 150.972656 256.621094 150.984375 256.429688 151.011719 L 239.152344 153.761719 C 238.78125 153.820312 238.433594 153.941406 238.109375 154.125 C 237.78125 154.308594 237.496094 154.542969 237.253906 154.824219 C 237.011719 155.109375 236.828125 155.425781 236.699219 155.777344 C 236.566406 156.128906 236.503906 156.492188 236.503906 156.863281 L 236.503906 159.460938 C 236.238281 159.402344 235.972656 159.371094 235.703125 159.355469 L 221.929688 159.179688 C 220.957031 159.144531 220.160156 158.75 219.542969 157.992188 L 207.074219 142.632812 C 200.175781 134.175781 188.40625 136.8125 186.1875 147.492188 L 179.707031 171.855469 C 179.5 172.851562 179.386719 173.851562 179.367188 174.867188 C 179.34375 175.882812 179.417969 176.890625 179.582031 177.890625 C 179.75 178.890625 180.007812 179.867188 180.355469 180.820312 C 180.703125 181.773438 181.136719 182.683594 181.652344 183.558594 C 182.171875 184.429688 182.765625 185.246094 183.433594 186.007812 C 184.105469 186.769531 184.839844 187.464844 185.636719 188.089844 C 186.4375 188.714844 187.285156 189.261719 188.1875 189.726562 C 189.085938 190.195312 190.023438 190.574219 190.992188 190.867188 L 150.960938 190.867188 C 150.765625 190.867188 150.574219 190.90625 150.394531 190.980469 C 150.210938 191.058594 150.050781 191.164062 149.914062 191.304688 C 149.773438 191.441406 149.667969 191.601562 149.59375 191.785156 C 149.515625 191.964844 149.480469 192.15625 149.480469 192.351562 L 149.480469 197.921875 C 149.480469 198.117188 149.515625 198.304688 149.59375 198.488281 C 149.667969 198.667969 149.773438 198.828125 149.914062 198.96875 C 150.050781 199.105469 150.210938 199.214844 150.394531 199.289062 C 150.574219 199.363281 150.765625 199.402344 150.960938 199.402344 L 206.453125 199.402344 C 206.648438 199.402344 206.835938 199.363281 207.019531 199.289062 C 207.199219 199.214844 207.359375 199.105469 207.5 198.96875 C 207.640625 198.828125 207.746094 198.667969 207.820312 198.488281 C 207.898438 198.308594 207.933594 198.117188 207.933594 197.921875 L 207.933594 193.511719 L 215.5 194.601562 L 209.511719 221.234375 C 209.441406 221.632812 209.410156 222.03125 209.417969 222.429688 C 209.425781 222.832031 209.472656 223.230469 209.558594 223.621094 C 209.644531 224.015625 209.765625 224.394531 209.925781 224.765625 C 210.085938 225.132812 210.277344 225.480469 210.507812 225.8125 C 210.734375 226.144531 210.992188 226.449219 211.277344 226.730469 C 211.566406 227.011719 211.875 227.261719 212.210938 227.480469 C 212.546875 227.703125 212.902344 227.886719 213.273438 228.039062 C 213.648438 228.1875 214.03125 228.300781 214.425781 228.378906 C 214.820312 228.453125 215.214844 228.492188 215.617188 228.492188 C 216.019531 228.488281 216.417969 228.449219 216.8125 228.371094 C 217.207031 228.292969 217.585938 228.175781 217.957031 228.023438 C 218.328125 227.867188 218.683594 227.679688 219.015625 227.457031 C 219.351562 227.238281 219.660156 226.984375 219.945312 226.703125 C 220.230469 226.417969 220.488281 226.109375 220.710938 225.777344 C 220.9375 225.445312 221.128906 225.09375 221.285156 224.726562 C 221.441406 224.355469 221.5625 223.976562 221.644531 223.582031 L 229.042969 194.1875 C 229.195312 193.480469 229.273438 192.765625 229.285156 192.042969 C 229.292969 191.320312 229.230469 190.601562 229.097656 189.890625 C 228.964844 189.179688 228.761719 188.492188 228.492188 187.820312 C 228.21875 187.148438 227.886719 186.511719 227.488281 185.90625 C 227.09375 185.300781 226.640625 184.742188 226.132812 184.230469 C 225.625 183.714844 225.070312 183.253906 224.472656 182.851562 C 223.871094 182.445312 223.238281 182.101562 222.570312 181.824219 C 221.90625 181.546875 221.214844 181.335938 220.507812 181.191406 C 214.277344 179.941406 206.539062 178.429688 202.511719 177.648438 C 202.152344 177.578125 201.820312 177.441406 201.519531 177.238281 C 201.21875 177.03125 200.964844 176.777344 200.765625 176.472656 C 200.566406 176.164062 200.4375 175.832031 200.375 175.472656 C 200.308594 175.113281 200.320312 174.753906 200.402344 174.398438 L 204.160156 157.691406 L 211.199219 166.03125 C 211.785156 166.753906 212.449219 167.402344 213.191406 167.972656 C 213.929688 168.542969 214.722656 169.023438 215.574219 169.40625 C 216.425781 169.792969 217.308594 170.078125 218.222656 170.257812 C 219.140625 170.4375 220.0625 170.511719 220.996094 170.480469 L 235.703125 169.675781 C 236.464844 169.648438 237.179688 169.460938 237.859375 169.113281 L 243.128906 198.457031 C 243.503906 200.53125 243.546875 202.613281 243.261719 204.703125 C 242.976562 206.792969 242.375 208.785156 241.457031 210.683594 L 234.089844 225.945312 C 233.683594 226.789062 233.171875 227.554688 232.546875 228.25 C 231.925781 228.945312 231.21875 229.542969 230.429688 230.039062 C 229.636719 230.535156 228.792969 230.914062 227.898438 231.171875 C 227 231.429688 226.085938 231.558594 225.152344 231.558594 L 211.183594 231.558594 C 210.832031 231.558594 210.480469 231.539062 210.132812 231.5 C 209.78125 231.460938 209.433594 231.402344 209.089844 231.324219 C 208.746094 231.25 208.410156 231.152344 208.078125 231.039062 C 207.742188 230.925781 207.417969 230.792969 207.097656 230.640625 C 206.78125 230.492188 206.472656 230.324219 206.171875 230.136719 C 205.871094 229.953125 205.582031 229.753906 205.304688 229.535156 C 205.027344 229.320312 204.761719 229.089844 204.511719 228.84375 C 204.257812 228.597656 204.019531 228.335938 203.796875 228.066406 C 203.574219 227.792969 203.367188 227.511719 203.171875 227.214844 C 202.980469 226.917969 202.804688 226.613281 202.648438 226.300781 C 202.488281 225.984375 202.347656 225.664062 202.226562 225.332031 C 202.101562 225.003906 201.996094 224.667969 201.910156 224.328125 C 201.824219 223.984375 201.757812 223.640625 201.710938 223.289062 C 201.664062 222.941406 201.636719 222.589844 201.625 222.238281 C 201.617188 221.886719 201.628906 221.535156 201.65625 221.183594 C 201.6875 220.832031 201.738281 220.484375 201.804688 220.140625 L 205.480469 201.558594 L 152.601562 201.558594 C 151.859375 201.554688 151.175781 201.75 150.542969 202.140625 C 150.046875 202.449219 149.378906 202.878906 148.585938 203.425781 C 148.144531 203.730469 147.65625 203.886719 147.121094 203.890625 L 124.515625 203.890625 C 124.15625 203.890625 123.804688 203.957031 123.472656 204.097656 C 123.136719 204.234375 122.84375 204.433594 122.585938 204.6875 C 122.332031 204.945312 122.132812 205.238281 121.996094 205.574219 C 121.855469 205.90625 121.789062 206.253906 121.789062 206.617188 C 121.789062 206.980469 121.855469 207.328125 121.996094 207.660156 C 122.132812 207.996094 122.332031 208.289062 122.585938 208.546875 C 122.84375 208.800781 123.136719 209 123.472656 209.136719 C 123.804688 209.277344 124.15625 209.347656 124.515625 209.347656 L 150.332031 209.347656 C 150.695312 209.347656 151.042969 209.414062 151.378906 209.554688 C 151.710938 209.691406 152.007812 209.890625 152.261719 210.144531 C 152.519531 210.402344 152.714844 210.695312 152.855469 211.03125 C 152.992188 211.363281 153.0625 211.710938 153.0625 212.074219 C 153.0625 212.4375 152.992188 212.785156 152.855469 213.117188 C 152.714844 213.453125 152.519531 213.746094 152.261719 214.003906 C 152.007812 214.257812 151.710938 214.457031 151.378906 214.59375 C 151.042969 214.734375 150.695312 214.800781 150.332031 214.800781 L 85.253906 214.800781 C 84.894531 214.800781 84.546875 214.871094 84.210938 215.011719 C 83.875 215.148438 83.582031 215.347656 83.324219 215.601562 C 83.070312 215.859375 82.871094 216.152344 82.734375 216.488281 C 82.59375 216.820312 82.527344 217.167969 82.527344 217.53125 C 82.527344 217.894531 82.59375 218.242188 82.734375 218.574219 C 82.871094 218.910156 83.070312 219.203125 83.324219 219.460938 C 83.582031 219.714844 83.875 219.914062 84.210938 220.050781 C 84.546875 220.191406 84.894531 220.257812 85.253906 220.257812 L 137.371094 220.257812 C 137.734375 220.253906 138.085938 220.324219 138.421875 220.460938 C 138.761719 220.597656 139.058594 220.792969 139.316406 221.046875 C 139.578125 221.304688 139.777344 221.601562 139.917969 221.9375 C 140.058594 222.273438 140.125 222.625 140.125 222.988281 C 140.125 223.351562 140.058594 223.703125 139.917969 224.039062 C 139.777344 224.375 139.578125 224.671875 139.316406 224.925781 C 139.058594 225.183594 138.761719 225.378906 138.421875 225.515625 C 138.085938 225.652344 137.734375 225.71875 137.371094 225.714844 L 103.953125 225.714844 C 103.589844 225.714844 103.242188 225.785156 102.90625 225.921875 C 102.574219 226.0625 102.277344 226.257812 102.023438 226.515625 C 101.765625 226.769531 101.570312 227.066406 101.429688 227.398438 C 101.292969 227.734375 101.222656 228.082031 101.222656 228.445312 C 101.222656 228.804688 101.292969 229.152344 101.429688 229.488281 C 101.570312 229.824219 101.765625 230.117188 102.023438 230.375 C 102.277344 230.628906 102.574219 230.828125 102.90625 230.964844 C 103.242188 231.101562 103.589844 231.171875 103.953125 231.171875 L 126.511719 231.171875 C 124.867188 235.898438 124.042969 240.761719 124.046875 245.765625 L 132.925781 245.765625 C 132.925781 245.820312 132.914062 245.871094 132.914062 245.925781 C 132.914062 246.535156 132.953125 247.136719 133.003906 247.734375 C 133.210938 250.230469 133.84375 252.613281 134.894531 254.886719 C 135.949219 257.15625 137.363281 259.175781 139.136719 260.945312 C 139.703125 261.523438 140.304688 262.0625 140.933594 262.570312 C 141.566406 263.074219 142.222656 263.542969 142.90625 263.976562 C 143.59375 264.40625 144.300781 264.796875 145.027344 265.144531 C 145.757812 265.496094 146.503906 265.800781 147.269531 266.066406 C 148.035156 266.332031 148.8125 266.550781 149.601562 266.722656 C 150.390625 266.898438 151.1875 267.027344 151.992188 267.109375 C 152.796875 267.195312 153.605469 267.230469 154.414062 267.222656 C 155.222656 267.210938 156.027344 267.15625 156.832031 267.054688 C 157.632812 266.953125 158.425781 266.804688 159.210938 266.613281 C 159.996094 266.417969 160.769531 266.179688 161.527344 265.898438 C 162.285156 265.617188 163.027344 265.292969 163.746094 264.925781 C 164.46875 264.558594 165.164062 264.152344 165.839844 263.707031 C 166.511719 263.257812 167.160156 262.773438 167.777344 262.253906 C 168.398438 261.734375 168.984375 261.179688 169.539062 260.589844 C 170.09375 260 170.613281 259.382812 171.097656 258.734375 C 171.582031 258.085938 172.027344 257.414062 172.433594 256.714844 C 172.679688 256.300781 172.910156 255.878906 173.125 255.445312 C 174.351562 253.015625 175.078125 250.445312 175.308594 247.734375 C 175.359375 247.136719 175.398438 246.535156 175.398438 245.925781 C 175.398438 245.871094 175.390625 245.820312 175.390625 245.765625 L 227.234375 245.765625 C 228.496094 245.753906 229.738281 245.589844 230.960938 245.28125 C 232.183594 244.972656 233.355469 244.523438 234.472656 243.9375 C 235.589844 243.351562 236.621094 242.640625 237.570312 241.808594 C 238.519531 240.976562 239.359375 240.046875 240.085938 239.015625 L 240.972656 237.730469 C 240.78125 239.675781 240.78125 241.625 240.972656 243.570312 C 241.054688 244.421875 241.195312 245.253906 241.347656 246.078125 C 241.816406 248.605469 242.601562 251.03125 243.695312 253.355469 C 244.0625 253.199219 244.414062 253.011719 244.753906 252.796875 C 245.285156 252.464844 245.792969 252.097656 246.269531 251.6875 C 246.917969 251.136719 247.503906 250.527344 248.035156 249.863281 C 248.347656 249.472656 248.636719 249.070312 248.90625 248.648438 C 249.257812 248.097656 249.566406 247.542969 249.859375 246.988281 C 252.929688 241.203125 253.269531 235.324219 259.734375 228.9375 C 260.5625 228.117188 261.453125 227.371094 262.410156 226.699219 Z M 165.875 245.925781 C 165.863281 246.6875 165.777344 247.441406 165.621094 248.1875 C 165.460938 248.933594 165.234375 249.65625 164.933594 250.359375 C 164.632812 251.058594 164.269531 251.726562 163.839844 252.355469 C 163.410156 252.984375 162.925781 253.566406 162.382812 254.101562 C 161.839844 254.636719 161.25 255.117188 160.613281 255.535156 C 159.976562 255.957031 159.308594 256.3125 158.601562 256.601562 C 157.898438 256.890625 157.171875 257.109375 156.421875 257.253906 C 155.675781 257.402344 154.917969 257.476562 154.15625 257.476562 C 153.394531 257.476562 152.640625 257.402344 151.890625 257.253906 C 151.144531 257.109375 150.417969 256.890625 149.710938 256.601562 C 149.003906 256.3125 148.335938 255.957031 147.699219 255.535156 C 147.0625 255.117188 146.472656 254.636719 145.929688 254.101562 C 145.386719 253.566406 144.902344 252.984375 144.472656 252.355469 C 144.042969 251.726562 143.679688 251.058594 143.378906 250.359375 C 143.078125 249.65625 142.851562 248.933594 142.691406 248.1875 C 142.535156 247.441406 142.449219 246.6875 142.441406 245.925781 C 142.441406 245.871094 142.457031 245.820312 142.457031 245.765625 L 165.855469 245.765625 C 165.855469 245.820312 165.875 245.871094 165.875 245.925781 Z M 193.664062 130.046875 C 193.375 127.855469 192.792969 123.253906 192.847656 122.050781 C 193.238281 113.65625 199.097656 107.113281 208.75 107.558594 C 209.558594 107.597656 210.355469 107.699219 211.148438 107.863281 C 211.9375 108.027344 212.710938 108.253906 213.464844 108.542969 C 214.222656 108.828125 214.949219 109.175781 215.648438 109.578125 C 216.347656 109.984375 217.011719 110.4375 217.636719 110.949219 C 218.265625 111.457031 218.847656 112.011719 219.386719 112.613281 C 219.925781 113.214844 220.414062 113.855469 220.847656 114.535156 C 221.285156 115.214844 221.664062 115.925781 221.988281 116.664062 C 222.3125 117.40625 222.574219 118.167969 222.777344 118.949219 L 208 118.261719 C 207.796875 118.253906 207.597656 118.28125 207.40625 118.351562 C 207.214844 118.421875 207.046875 118.523438 206.894531 118.660156 C 206.746094 118.796875 206.625 118.957031 206.539062 119.140625 C 206.453125 119.324219 206.40625 119.519531 206.398438 119.722656 L 206.164062 124.722656 C 206.140625 125.203125 206.265625 125.636719 206.539062 126.03125 C 206.8125 126.425781 207.175781 126.695312 207.628906 126.84375 L 222.164062 131.574219 C 221.25 134.28125 219.929688 136.773438 218.199219 139.046875 C 217.933594 139.398438 217.585938 139.632812 217.160156 139.753906 C 216.734375 139.875 216.316406 139.855469 215.902344 139.695312 L 194.921875 131.640625 C 194.582031 131.511719 194.300781 131.304688 194.074219 131.019531 C 193.847656 130.734375 193.710938 130.410156 193.664062 130.046875 Z M 109.222656 161.707031 L 82.457031 161.707031 C 82.070312 161.707031 81.703125 161.628906 81.347656 161.472656 C 80.996094 161.316406 80.691406 161.09375 80.429688 160.804688 C 80.171875 160.519531 79.984375 160.191406 79.863281 159.824219 C 79.742188 159.457031 79.703125 159.082031 79.742188 158.699219 C 79.886719 157.277344 81.1875 156.25 82.613281 156.25 L 116.21875 156.25 C 116.605469 156.25 116.972656 156.171875 117.328125 156.015625 C 117.679688 155.859375 117.984375 155.636719 118.246094 155.347656 C 118.503906 155.0625 118.691406 154.734375 118.8125 154.367188 C 118.933594 154 118.972656 153.625 118.933594 153.242188 C 118.789062 151.820312 117.488281 150.792969 116.0625 150.792969 L 89.140625 150.792969 C 88.777344 150.792969 88.429688 150.726562 88.09375 150.585938 C 87.761719 150.449219 87.464844 150.25 87.210938 149.996094 C 86.953125 149.738281 86.757812 149.445312 86.617188 149.109375 C 86.480469 148.777344 86.410156 148.425781 86.410156 148.066406 C 86.410156 147.703125 86.480469 147.355469 86.617188 147.023438 C 86.757812 146.6875 86.953125 146.390625 87.210938 146.136719 C 87.464844 145.878906 87.761719 145.683594 88.09375 145.546875 C 88.429688 145.40625 88.777344 145.335938 89.140625 145.335938 L 116.21875 145.335938 C 116.605469 145.335938 116.972656 145.257812 117.328125 145.101562 C 117.679688 144.945312 117.984375 144.722656 118.246094 144.4375 C 118.503906 144.148438 118.691406 143.820312 118.8125 143.453125 C 118.933594 143.085938 118.972656 142.710938 118.933594 142.328125 C 118.789062 140.90625 117.488281 139.878906 116.0625 139.878906 L 97.25 139.878906 C 96.863281 139.878906 96.492188 139.800781 96.140625 139.644531 C 95.789062 139.488281 95.480469 139.265625 95.222656 138.980469 C 94.964844 138.691406 94.773438 138.367188 94.65625 137.996094 C 94.535156 137.628906 94.496094 137.253906 94.535156 136.871094 C 94.679688 135.449219 95.976562 134.425781 97.40625 134.425781 L 109.222656 134.425781 L 109.222656 131.289062 C 109.222656 130.929688 109.292969 130.585938 109.429688 130.253906 C 109.566406 129.925781 109.761719 129.632812 110.015625 129.378906 C 110.265625 129.125 110.558594 128.929688 110.890625 128.792969 C 111.222656 128.65625 111.566406 128.585938 111.925781 128.585938 L 172.296875 128.585938 C 172.65625 128.585938 173 128.65625 173.332031 128.792969 C 173.664062 128.929688 173.953125 129.125 174.207031 129.378906 C 174.460938 129.632812 174.65625 129.925781 174.792969 130.253906 C 174.929688 130.585938 175 130.929688 175 131.289062 L 175 184.011719 C 175 184.511719 174.902344 184.996094 174.710938 185.460938 C 174.519531 185.921875 174.246094 186.332031 173.890625 186.6875 C 173.539062 187.039062 173.128906 187.3125 172.664062 187.507812 C 172.203125 187.699219 171.71875 187.792969 171.21875 187.792969 L 111.925781 187.792969 C 111.566406 187.792969 111.222656 187.726562 110.890625 187.589844 C 110.558594 187.453125 110.265625 187.257812 110.015625 187.003906 C 109.761719 186.75 109.566406 186.457031 109.429688 186.125 C 109.292969 185.792969 109.222656 185.449219 109.222656 185.089844 L 109.222656 167.164062 L 116.21875 167.164062 C 116.605469 167.164062 116.972656 167.085938 117.328125 166.929688 C 117.679688 166.773438 117.984375 166.550781 118.246094 166.261719 C 118.503906 165.976562 118.691406 165.648438 118.8125 165.28125 C 118.933594 164.914062 118.972656 164.539062 118.933594 164.15625 C 118.789062 162.734375 117.488281 161.707031 116.0625 161.707031 Z M 109.222656 161.707031 " fill-opacity="1" fill-rule="nonzero"/></g></svg>