<?xml version="1.0" standalone="no"?>
<!DOCTYPE svg PUBLIC "-//W3C//DTD SVG 20010904//EN"
 "http://www.w3.org/TR/2001/REC-SVG-20010904/DTD/svg10.dtd">
<svg version="1.0" xmlns="http://www.w3.org/2000/svg"
 width="500.000000pt" height="500.000000pt" viewBox="0 0 500.000000 500.000000"
 preserveAspectRatio="xMidYMid meet">

<g transform="translate(0.000000,500.000000) scale(0.100000,-0.100000)"
fill="#000000" stroke="none">
<path d="M1853 3827 c-43 -46 -125 -179 -157 -254 -40 -95 -56 -160 -65 -273
l-7 -85 -19 40 c-11 22 -27 51 -36 65 -9 14 -22 43 -29 65 -7 22 -19 49 -26
60 -13 18 -14 15 -14 -25 0 -138 62 -350 151 -519 33 -62 58 -115 56 -117 -5
-5 -133 62 -187 99 -25 17 -65 48 -89 69 -24 21 -46 36 -49 33 -15 -14 149
-218 231 -286 60 -50 230 -166 272 -185 16 -7 9 -9 -31 -12 -57 -3 -179 25
-240 56 -22 11 -50 23 -63 27 -43 13 35 -47 134 -104 77 -44 222 -101 257
-101 6 0 8 13 4 35 -5 27 0 47 24 94 16 33 30 64 30 69 0 5 -23 47 -52 93 -66
109 -111 213 -145 335 -25 92 -27 112 -27 294 0 176 3 205 27 300 14 58 38
136 52 174 14 38 24 70 22 72 -2 2 -13 -6 -24 -19z"/>
<path d="M3903 3775 c-103 -126 -276 -257 -463 -350 -97 -48 -168 -78 -430
-180 -168 -65 -272 -120 -323 -170 -61 -61 -117 -157 -156 -267 -30 -86 -63
-233 -54 -242 3 -2 39 12 81 32 l77 37 145 0 c81 -1 162 -6 184 -13 45 -13 62
-8 23 7 -21 8 -46 31 -35 31 2 0 53 9 113 20 61 11 148 20 195 21 98 1 87 7
-73 39 -124 25 -276 26 -369 1 -46 -12 -64 -13 -57 -5 22 27 164 86 324 134
251 76 381 132 530 227 85 55 205 150 205 163 0 5 -24 0 -52 -12 -107 -44
-309 -108 -528 -168 -352 -96 -444 -134 -527 -213 -24 -23 -43 -37 -43 -31 0
20 57 99 97 135 62 56 239 131 453 193 307 89 532 175 568 219 37 44 117 228
153 350 32 107 23 117 -38 42z"/>
<path d="M2203 3191 c-18 -22 -59 -59 -90 -83 -33 -25 -59 -53 -61 -65 -2 -12
-21 -40 -43 -61 -36 -36 -39 -44 -39 -93 0 -70 13 -91 29 -50 7 16 20 36 30
45 22 20 184 77 177 62 -21 -49 -198 -430 -215 -465 l-23 -44 28 -76 c42 -116
90 -222 100 -222 5 0 12 31 15 68 7 91 20 120 144 343 59 105 110 203 115 219
6 23 0 46 -32 116 -38 85 -44 111 -18 80 18 -21 32 -19 25 5 -4 11 -26 55 -51
98 -33 58 -44 88 -44 120 0 23 -3 42 -7 42 -5 0 -23 -18 -40 -39z"/>
<path d="M2267 2522 c-110 -188 -103 -155 -78 -352 6 -41 10 -160 11 -265 0
-104 4 -185 8 -180 5 6 16 46 26 90 38 169 91 329 107 320 4 -3 10 -24 14 -48
17 -99 101 -261 175 -335 35 -35 48 -36 30 -3 -6 12 -9 21 -6 21 3 0 40 -18
83 -39 92 -46 256 -104 279 -99 11 2 1 14 -32 38 -127 91 -265 250 -332 385
-42 82 -65 156 -101 320 -17 77 -38 163 -46 190 -7 28 -17 67 -20 88 -3 20 -9
37 -13 37 -4 0 -51 -75 -105 -168z"/>
<path d="M2490 2408 c0 -29 107 -231 152 -285 78 -93 204 -191 304 -233 58
-25 61 -25 38 2 -18 20 -18 21 -1 15 43 -16 246 -47 305 -47 74 0 225 26 261
44 20 11 5 14 -115 25 -224 19 -401 74 -570 175 -125 74 -270 194 -342 283
-21 25 -31 32 -32 21z"/>
</g>
</svg>
